<svg width="120" height="120" viewBox="0 0 120 120" fill="none" xmlns="http://www.w3.org/2000/svg">
<rect width="120" height="120" rx="20" fill="url(#paint0_linear_128_3346)"/>
<path d="M64.0857 48.061L62.1513 54.85H69.2611C69.6145 54.8504 69.9604 54.9513 70.2585 55.1411C70.5565 55.3309 70.7944 55.6016 70.9442 55.9217C71.0939 56.2417 71.1494 56.5978 71.1042 56.9482C71.059 57.2986 70.9148 57.6289 70.6887 57.9005L58.329 72.7339C56.9665 74.3614 54.3486 72.9665 54.9531 70.9298L56.9665 64.15H49.7358C49.3816 64.1505 49.0346 64.0498 48.7357 63.8598C48.4368 63.6698 48.1984 63.3983 48.0484 63.0775C47.8985 62.7566 47.8433 62.3995 47.8893 62.0483C47.9353 61.6972 48.0807 61.3664 48.3082 61.095L60.7144 46.2708C62.0629 44.6526 64.6669 46.0336 64.0903 48.061M50.2008 24.625C50.2008 24.0084 49.9558 23.417 49.5198 22.981C49.0838 22.545 48.4924 22.3 47.8758 22.3C47.2592 22.3 46.6678 22.545 46.2318 22.981C45.7957 23.417 45.5508 24.0084 45.5508 24.625V31.6H43.2258C40.1426 31.6 37.1858 32.8248 35.0057 35.0049C32.8256 37.185 31.6008 40.1419 31.6008 43.225V45.55H24.6258C24.0092 45.55 23.4178 45.795 22.9818 46.231C22.5457 46.667 22.3008 47.2584 22.3008 47.875C22.3008 48.4917 22.5457 49.0831 22.9818 49.5191C23.4178 49.9551 24.0092 50.2 24.6258 50.2H31.6008V57.175H24.6258C24.0092 57.175 23.4178 57.42 22.9818 57.856C22.5457 58.292 22.3008 58.8834 22.3008 59.5C22.3008 60.1167 22.5457 60.7081 22.9818 61.1441C23.4178 61.5801 24.0092 61.825 24.6258 61.825H31.6008V68.8H24.6258C24.0092 68.8 23.4178 69.045 22.9818 69.481C22.5457 69.917 22.3008 70.5084 22.3008 71.125C22.3008 71.7417 22.5457 72.3331 22.9818 72.7691C23.4178 73.2051 24.0092 73.45 24.6258 73.45H31.6008V75.775C31.6008 78.8582 32.8256 81.8151 35.0057 83.9952C37.1858 86.1753 40.1426 87.4001 43.2258 87.4001H45.5508V94.3751C45.5508 94.9917 45.7957 95.5831 46.2318 96.0191C46.6678 96.4551 47.2592 96.7001 47.8758 96.7001C48.4924 96.7001 49.0838 96.4551 49.5198 96.0191C49.9558 95.5831 50.2008 94.9917 50.2008 94.3751V87.4001H57.1758V94.3751C57.1758 94.9917 57.4207 95.5831 57.8568 96.0191C58.2928 96.4551 58.8842 96.7001 59.5008 96.7001C60.1174 96.7001 60.7088 96.4551 61.1448 96.0191C61.5808 95.5831 61.8258 94.9917 61.8258 94.3751V87.4001H68.8008V94.3751C68.8008 94.9917 69.0457 95.5831 69.4818 96.0191C69.9178 96.4551 70.5092 96.7001 71.1258 96.7001C71.7424 96.7001 72.3338 96.4551 72.7698 96.0191C73.2058 95.5831 73.4508 94.9917 73.4508 94.3751V87.4001H75.7758C78.8589 87.4001 81.8158 86.1753 83.9959 83.9952C86.176 81.8151 87.4008 78.8582 87.4008 75.775V73.45H94.3758C94.9924 73.45 95.5838 73.2051 96.0198 72.7691C96.4558 72.3331 96.7008 71.7417 96.7008 71.125C96.7008 70.5084 96.4558 69.917 96.0198 69.481C95.5838 69.045 94.9924 68.8 94.3758 68.8H87.4008V61.825H94.3758C94.9924 61.825 95.5838 61.5801 96.0198 61.1441C96.4558 60.7081 96.7008 60.1167 96.7008 59.5C96.7008 58.8834 96.4558 58.292 96.0198 57.856C95.5838 57.42 94.9924 57.175 94.3758 57.175H87.4008V50.2H94.3758C94.9924 50.2 95.5838 49.9551 96.0198 49.5191C96.4558 49.0831 96.7008 48.4917 96.7008 47.875C96.7008 47.2584 96.4558 46.667 96.0198 46.231C95.5838 45.795 94.9924 45.55 94.3758 45.55H87.4008V43.225C87.4008 40.1419 86.176 37.185 83.9959 35.0049C81.8158 32.8248 78.8589 31.6 75.7758 31.6H73.4508V24.625C73.4508 24.0084 73.2058 23.417 72.7698 22.981C72.3338 22.545 71.7424 22.3 71.1258 22.3C70.5092 22.3 69.9178 22.545 69.4818 22.981C69.0457 23.417 68.8008 24.0084 68.8008 24.625V31.6H61.8258V24.625C61.8258 24.0084 61.5808 23.417 61.1448 22.981C60.7088 22.545 60.1174 22.3 59.5008 22.3C58.8842 22.3 58.2928 22.545 57.8568 22.981C57.4207 23.417 57.1758 24.0084 57.1758 24.625V31.6H50.2008V24.625ZM75.7758 36.25C77.6257 36.25 79.3998 36.9849 80.7079 38.293C82.0159 39.601 82.7508 41.3752 82.7508 43.225V75.775C82.7508 77.6249 82.0159 79.3991 80.7079 80.7071C79.3998 82.0152 77.6257 82.7501 75.7758 82.7501H43.2258C41.3759 82.7501 39.6018 82.0152 38.2937 80.7071C36.9856 79.3991 36.2508 77.6249 36.2508 75.775V43.225C36.2508 41.3752 36.9856 39.601 38.2937 38.293C39.6018 36.9849 41.3759 36.25 43.2258 36.25H75.7758Z" fill="white"/>
<defs>
<linearGradient id="paint0_linear_128_3346" x1="60" y1="0" x2="60" y2="120" gradientUnits="userSpaceOnUse">
<stop stop-color="#4898E5"/>
<stop offset="1" stop-color="#756CEC"/>
</linearGradient>
</defs>
</svg>
